<svg xmlns="http://www.w3.org/2000/svg" xmlns:xlink="http://www.w3.org/1999/xlink" version="1.1" x="0px" y="0px" viewBox="0 0 100 100" enable-background="new 0 0 100 100" xml:space="preserve"><path d="M50,5C25.1,5,5,25.1,5,50c0,24.8,20.1,45,45,45c24.9,0,45-20.2,45-45C95,25.1,74.9,5,50,5L50,5z M38.2,32  c0-6.5,5.3-11.8,11.8-11.8c6.5,0,11.8,5.3,11.8,11.8l-0.1,16.8c0,6.5-5.3,11.7-11.8,11.7c-6.4,0-11.7-5.2-11.7-11.7V32z M69.6,49  c0,10.1-7.7,18.4-17.5,19.5v0.2v6.8h8.5c1.2,0,2.2,1,2.2,2.2c0,1.2-1,2.1-2.2,2.1H39.4c-1.2,0-2.2-1-2.2-2.1c0-1.2,1-2.2,2.2-2.2  h8.5v-6.8v-0.2C38,67.4,30.4,59.1,30.4,49v-5.4c0-1.2,1-2.2,2.1-2.2c1.2,0,2.2,1,2.2,2.2V49c0,8.5,6.9,15.4,15.4,15.4  c8.5,0,15.4-6.9,15.4-15.4v-5.4c0-1.2,1-2.2,2.1-2.2c1.2,0,2.2,1,2.2,2.2V49z"></path></svg>